<?xml version="1.0" encoding="UTF-8"?>
<svg id="Capa_2" data-name="Capa 2" xmlns="http://www.w3.org/2000/svg" xmlns:xlink="http://www.w3.org/1999/xlink" viewBox="0 0 1783.13 2162.65">
  <defs>
    <style>
      .cls-1 {
        fill: url(#Degradado_sin_nombre_8-12);
      }

      .cls-2 {
        fill: url(#Degradado_sin_nombre_8-9);
      }

      .cls-3 {
        fill: url(#Degradado_sin_nombre_8-8);
      }

      .cls-4 {
        fill: url(#Degradado_sin_nombre_8-5);
      }

      .cls-5 {
        fill: url(#Degradado_sin_nombre_8-2);
      }

      .cls-6 {
        fill: url(#Degradado_sin_nombre_8-7);
      }

      .cls-7 {
        fill: url(#Degradado_sin_nombre_8-3);
      }

      .cls-8 {
        fill: #14cc60;
      }

      .cls-9 {
        fill: url(#Degradado_sin_nombre_8-6);
      }

      .cls-10 {
        fill: url(#Degradado_sin_nombre_8-11);
      }

      .cls-11 {
        fill: url(#Degradado_sin_nombre_8-4);
      }

      .cls-12 {
        fill: url(#Degradado_sin_nombre_8);
      }

      .cls-13 {
        fill: url(#Degradado_sin_nombre_8-10);
      }
    </style>
    <linearGradient id="Degradado_sin_nombre_8" data-name="Degradado sin nombre 8" x1="-1.92" y1="127.14" x2="1157.2" y2="1981.74" gradientUnits="userSpaceOnUse">
      <stop offset="0" stop-color="#014eb8"/>
      <stop offset="1" stop-color="#14cc60"/>
    </linearGradient>
    <linearGradient id="Degradado_sin_nombre_8-2" data-name="Degradado sin nombre 8" x1="822.53" y1="1474.3" x2="420.54" y2="801.65" xlink:href="#Degradado_sin_nombre_8"/>
    <linearGradient id="Degradado_sin_nombre_8-3" data-name="Degradado sin nombre 8" x1="-151.04" y1="117.21" x2="898.08" y2="1795.8" xlink:href="#Degradado_sin_nombre_8"/>
    <linearGradient id="Degradado_sin_nombre_8-4" data-name="Degradado sin nombre 8" x1="826.61" y1="1743.16" x2="1248.43" y2="343.21" xlink:href="#Degradado_sin_nombre_8"/>
    <linearGradient id="Degradado_sin_nombre_8-5" data-name="Degradado sin nombre 8" x1="457.7" y1="1632" x2="879.52" y2="232.05" xlink:href="#Degradado_sin_nombre_8"/>
    <linearGradient id="Degradado_sin_nombre_8-6" data-name="Degradado sin nombre 8" x1="1166.35" y1="1845.52" x2="1588.17" y2="445.58" xlink:href="#Degradado_sin_nombre_8"/>
    <linearGradient id="Degradado_sin_nombre_8-7" data-name="Degradado sin nombre 8" x1="118.74" y1="1529.87" x2="540.56" y2="129.92" xlink:href="#Degradado_sin_nombre_8"/>
    <linearGradient id="Degradado_sin_nombre_8-8" data-name="Degradado sin nombre 8" x1="1169.36" y1="1846.43" x2="1591.18" y2="446.48" xlink:href="#Degradado_sin_nombre_8"/>
    <linearGradient id="Degradado_sin_nombre_8-9" data-name="Degradado sin nombre 8" x1="1234.05" y1="1865.92" x2="1655.86" y2="465.97" xlink:href="#Degradado_sin_nombre_8"/>
    <linearGradient id="Degradado_sin_nombre_8-10" data-name="Degradado sin nombre 8" x1="1002.73" y1="1796.22" x2="1424.54" y2="396.27" xlink:href="#Degradado_sin_nombre_8"/>
    <linearGradient id="Degradado_sin_nombre_8-11" data-name="Degradado sin nombre 8" x1="731.31" y1="1714.44" x2="1153.13" y2="314.49" xlink:href="#Degradado_sin_nombre_8"/>
    <linearGradient id="Degradado_sin_nombre_8-12" data-name="Degradado sin nombre 8" x1="-83.02" y1="1469.08" x2="338.8" y2="69.13" xlink:href="#Degradado_sin_nombre_8"/>
  </defs>
  <g id="Capa_2-2" data-name="Capa 2">
    <g>
      <g>
        <path class="cls-12" d="m473.52,1224.23c45.13,61.89,104.23,92.82,177.32,92.82,55.13-.63,99.74-13.16,133.85-37.61,33.08-24.44,58.98-57.5,77.69-99.19v118.42h45.06v-358.53h-241.07v55.51h190.65c.53,52.26-7.53,100.26-24.17,144.01-19.44,43.76-44.62,75.08-75.57,93.96-31.45,18.57-63.16,27.86-95.13,27.86-64.96-1.25-115.2-30.18-150.75-86.78-36.06-55.34-54.09-122.3-54.09-200.9-.18-33.32.38-65.08,3.14-94.49,0,0,0,0,0-.01.63-3.37,1.22-6.74,1.78-10.13.08-.49.16-.99.24-1.48.52-3.19,1.02-6.39,1.5-9.59.01-.08.02-.16.04-.24,1.14-7.64,2.21-15.3,3.3-22.94.39-2.72.78-5.43,1.19-8.14.15-1,.31-1.99.46-2.98.34-2.21.68-4.41,1.04-6.61.18-1.1.36-2.2.55-3.3.5-2.95,1.01-5.89,1.56-8.82.08-.43.17-.86.25-1.29.53-2.77,1.1-5.53,1.69-8.28.2-.92.41-1.84.61-2.76.59-2.6,1.21-5.18,1.87-7.76.13-.52.25-1.04.39-1.56.79-2.99,1.64-5.96,2.55-8.91.25-.81.51-1.61.77-2.42.77-2.41,1.59-4.81,2.45-7.2.25-.68.48-1.36.73-2.03,1.09-2.91,2.27-5.8,3.52-8.67.29-.65.59-1.29.89-1.94,1.06-2.34,2.19-4.67,3.37-6.98.37-.73.74-1.46,1.13-2.18,1.5-2.81,3.08-5.59,4.78-8.34.26-.42.55-.84.82-1.26,1.5-2.37,3.09-4.71,4.76-7.02.52-.72,1.05-1.45,1.58-2.17,2.01-2.68,4.1-5.34,6.36-7.95,6.36-7.33,13.28-14.09,20.68-20.24,11.12-9.24,23.34-17.04,36.28-23.35,4.27-2.08,8.59-4.06,13.01-5.8,11.87-4.69,24.25-8.12,36.9-10.21,9.49-1.56,19.13-2.37,28.84-2.37,6.2,0,12.32.31,18.36.93,3.02.31,6.01.69,8.99,1.14,5.94.91,11.79,2.11,17.53,3.58,12.94,3.33,25.3,8.11,36.94,14.09,3.17,1.62,6.28,3.33,9.33,5.13,52.91,31.24,88.42,88.81,88.42,154.7h0s53.8,0,53.8,0c0-120.83-91.83-220.22-209.51-232.17-7.85-.8-15.81-1.2-23.86-1.2-5.6,0-11.15.2-16.65.58-11,.78-21.79,2.31-32.32,4.56-5.26,1.12-10.46,2.42-15.59,3.9-35.88,10.3-68.21,28.98-94.74,53.77-3.79,3.54-7.46,7.21-11.01,10.99-14.19,15.14-26.39,32.18-36.17,50.69-1.38,2.61-2.66,5.24-3.89,7.89-18.43-25.48-47.54-45.61-87.43-60.35,62.82-31.11,94.24-84.24,94.24-159.38-.61-60.58-18.81-105.42-54.59-134.56-36.09-28.46-81.27-42.7-135.54-42.7-27.76,0-54.59,2.78-80.49,8.36-25.91,6.56-49.66,19.67-71.24,39.33-43.51,44.18-64.95,97.83-64.3,160.94h60.43c0-45.53,13.58-82.59,40.75-111.18,25.32-27.91,59.44-42.21,102.36-42.88,40.44,0,73.94,9.81,100.5,29.42,27.17,19.94,41.06,52.34,41.68,97.22-.62,53.85-17.91,90.58-51.87,110.18-34.89,18.95-81.37,28.09-139.41,27.43l-.08,52.54c29.84-3.64,57.83-3.31,83.94.99,26.11,3.99,48.65,11.78,67.62,23.38,40.11,21.56,61.72,61.19,64.82,118.9.06,4.32-.07,8.56-.31,12.76-.39,2.06-.8,4.11-1.22,6.16-.03.14-.06.27-.09.41-1.6,7.68-3.47,15.27-5.71,22.74-.22.75-.44,1.5-.68,2.25-.41,1.31-.84,2.6-1.27,3.9-.31.94-.63,1.87-.96,2.81-.42,1.2-.85,2.39-1.3,3.58-.39,1.04-.79,2.08-1.2,3.11-.44,1.11-.87,2.22-1.33,3.32-.5,1.19-1.02,2.37-1.55,3.55-.42.94-.82,1.89-1.26,2.83-.96,2.05-1.96,4.08-3.01,6.1-.35.68-.74,1.35-1.11,2.03-.77,1.43-1.55,2.85-2.37,4.27-.47.81-.98,1.62-1.47,2.43-.77,1.27-1.56,2.54-2.38,3.8-.53.82-1.08,1.63-1.63,2.45-.85,1.26-1.74,2.51-2.64,3.75-.56.77-1.12,1.55-1.71,2.31-1.02,1.34-2.08,2.66-3.15,3.99-.52.64-1.03,1.29-1.57,1.93-1.64,1.94-3.34,3.87-5.12,5.77,0,0,0,0,0,0-2.11,2.25-4.27,4.44-6.49,6.56-.2.19-.41.36-.61.55-6.48,6.16-13.39,11.82-20.67,16.92-2.5,1.75-5.05,3.44-7.63,5.06-12.92,8.1-26.83,14.54-41.35,19.16-17.42,5.54-35.72,8.46-54.21,8.46-21.69,0-42.49-3.85-61.74-10.9-5.5-2.01-10.88-4.29-16.11-6.81-5.23-2.52-10.33-5.29-15.26-8.29-51.83-31.49-86.46-88.49-86.46-153.58H0c0,24.17,3.67,47.48,10.49,69.41,1.14,3.65,2.36,7.27,3.67,10.84,2.62,7.15,5.57,14.14,8.85,20.94,11.47,23.81,26.86,45.37,45.34,63.85,5.28,5.28,10.81,10.31,16.57,15.06,2.88,2.38,5.82,4.69,8.82,6.93,5.99,4.48,12.2,8.68,18.62,12.58,35.28,21.44,76.71,33.79,121.01,33.79,5.05,0,10.04-.21,15.01-.53,1.48-.09,2.95-.23,4.42-.35,3.64-.3,7.25-.68,10.84-1.15,1.47-.19,2.93-.37,4.39-.58,4.64-.69,9.25-1.48,13.79-2.45.2-.04.4-.07.59-.11,4.72-1.01,9.37-2.2,13.98-3.5,1.41-.39,2.79-.83,4.19-1.25,3.33-1,6.63-2.07,9.9-3.21,1.41-.49,2.83-.98,4.23-1.5,4.04-1.5,8.04-3.1,11.98-4.82.41-.18.83-.33,1.24-.52,4.27-1.9,8.45-3.95,12.59-6.09,1.32-.68,2.61-1.4,3.92-2.11,2.93-1.59,5.83-3.24,8.68-4.95,1.33-.8,2.67-1.59,3.98-2.41,3.4-2.13,6.74-4.34,10.02-6.64.56-.39,1.14-.75,1.69-1.15,3.72-2.66,7.34-5.45,10.9-8.32,1.18-.96,2.33-1.94,3.5-2.92,2.49-2.09,4.93-4.22,7.32-6.4,1.19-1.08,2.37-2.16,3.54-3.26,2.78-2.64,5.49-5.35,8.14-8.12.57-.6,1.18-1.17,1.74-1.78.04-.05.09-.09.13-.14,5.58,100.35,28.72,177.41,69.44,231.12Z"/>
        <path class="cls-5" d="m473.52,1224.23c45.13,61.89,104.23,92.82,177.32,92.82,55.13-.63,99.74-13.16,133.85-37.61,33.08-24.44,58.98-57.5,77.69-99.19v118.42h45.06v-358.53h-241.07v55.51h190.65c.53,52.26-7.53,100.26-24.17,144.01-19.44,43.76-44.62,75.08-75.57,93.96-31.45,18.57-63.16,27.86-95.13,27.86-64.96-1.25-115.2-30.18-150.75-86.78-36.06-55.34-54.09-122.3-54.09-200.9-.18-33.32.38-65.08,3.14-94.49,0,0,0,0,0-.01.63-3.37,1.22-6.74,1.78-10.13.08-.49.16-.99.24-1.48.52-3.19,1.02-6.39,1.5-9.59.01-.08.02-.16.04-.24,1.14-7.64,2.21-15.3,3.3-22.94.39-2.72.78-5.43,1.19-8.14.15-1,.31-1.99.46-2.98.34-2.21.68-4.41,1.04-6.61.18-1.1.36-2.2.55-3.3.5-2.95,1.01-5.89,1.56-8.82.08-.43.17-.86.25-1.29.53-2.77,1.1-5.53,1.69-8.28.2-.92.41-1.84.61-2.76.59-2.6,1.21-5.18,1.87-7.76.13-.52.25-1.04.39-1.56.79-2.99,1.64-5.96,2.55-8.91.25-.81.51-1.61.77-2.42.77-2.41,1.59-4.81,2.45-7.2.25-.68.48-1.36.73-2.03,1.09-2.91,2.27-5.8,3.52-8.67.29-.65.59-1.29.89-1.94,1.06-2.34,2.19-4.67,3.37-6.98.37-.73.74-1.46,1.13-2.18,1.5-2.81,3.08-5.59,4.78-8.34.26-.42.55-.84.82-1.26,1.5-2.37,3.09-4.71,4.76-7.02.52-.72,1.05-1.45,1.58-2.17,2.01-2.68,4.1-5.34,6.36-7.95,6.36-7.33,13.28-14.09,20.68-20.24,11.12-9.24,23.34-17.04,36.28-23.35,4.27-2.08,8.59-4.06,13.01-5.8,11.87-4.69,24.25-8.12,36.9-10.21,9.49-1.56,19.13-2.37,28.84-2.37,6.2,0,12.32.31,18.36.93,3.02.31,6.01.69,8.99,1.14,5.94.91,11.79,2.11,17.53,3.58,12.94,3.33,25.3,8.11,36.94,14.09,3.17,1.62,6.28,3.33,9.33,5.13,52.91,31.24,88.42,88.81,88.42,154.7h0s53.8,0,53.8,0c0-120.83-91.83-220.22-209.51-232.17-7.85-.8-15.81-1.2-23.86-1.2-5.6,0-11.15.2-16.65.58-11,.78-21.79,2.31-32.32,4.56-5.26,1.12-10.46,2.42-15.59,3.9-35.88,10.3-68.21,28.98-94.74,53.77-3.79,3.54-7.46,7.21-11.01,10.99-14.19,15.14-26.39,32.18-36.17,50.69-1.38,2.61-2.66,5.24-3.89,7.89-18.43-25.48-47.54-45.61-87.43-60.35,62.82-31.11,94.24-84.24,94.24-159.38-.61-60.58-18.81-105.42-54.59-134.56-36.09-28.46-81.27-42.7-135.54-42.7-27.76,0-54.59,2.78-80.49,8.36-25.91,6.56-49.66,19.67-71.24,39.33-43.51,44.18-64.95,97.83-64.3,160.94h60.43c0-45.53,13.58-82.59,40.75-111.18,25.32-27.91,59.44-42.21,102.36-42.88,40.44,0,73.94,9.81,100.5,29.42,27.17,19.94,41.06,52.34,41.68,97.22-.62,53.85-17.91,90.58-51.87,110.18-34.89,18.95-81.37,28.09-139.41,27.43l-.08,52.54c29.84-3.64,57.83-3.31,83.94.99,26.11,3.99,48.65,11.78,67.62,23.38,40.11,21.56,61.72,61.19,64.82,118.9.06,4.32-.07,8.56-.31,12.76-.39,2.06-.8,4.11-1.22,6.16-.03.14-.06.27-.09.41-1.6,7.68-3.47,15.27-5.71,22.74-.22.75-.44,1.5-.68,2.25-.41,1.31-.84,2.6-1.27,3.9-.31.94-.63,1.87-.96,2.81-.42,1.2-.85,2.39-1.3,3.58-.39,1.04-.79,2.08-1.2,3.11-.44,1.11-.87,2.22-1.33,3.32-.5,1.19-1.02,2.37-1.55,3.55-.42.94-.82,1.89-1.26,2.83-.96,2.05-1.96,4.08-3.01,6.1-.35.68-.74,1.35-1.11,2.03-.77,1.43-1.55,2.85-2.37,4.27-.47.81-.98,1.62-1.47,2.43-.77,1.27-1.56,2.54-2.38,3.8-.53.82-1.08,1.63-1.63,2.45-.85,1.26-1.74,2.51-2.64,3.75-.56.77-1.12,1.55-1.71,2.31-1.02,1.34-2.08,2.66-3.15,3.99-.52.64-1.03,1.29-1.57,1.93-1.64,1.94-3.34,3.87-5.12,5.77,0,0,0,0,0,0-2.11,2.25-4.27,4.44-6.49,6.56-.2.19-.41.36-.61.55-6.48,6.16-13.39,11.82-20.67,16.92-2.5,1.75-5.05,3.44-7.63,5.06-12.92,8.1-26.83,14.54-41.35,19.16-17.42,5.54-35.72,8.46-54.21,8.46-21.69,0-42.49-3.85-61.74-10.9-5.5-2.01-10.88-4.29-16.11-6.81-5.23-2.52-10.33-5.29-15.26-8.29-51.83-31.49-86.46-88.49-86.46-153.58H0c0,24.17,3.67,47.48,10.49,69.41,1.14,3.65,2.36,7.27,3.67,10.84,2.62,7.15,5.57,14.14,8.85,20.94,11.47,23.81,26.86,45.37,45.34,63.85,5.28,5.28,10.81,10.31,16.57,15.06,2.88,2.38,5.82,4.69,8.82,6.93,5.99,4.48,12.2,8.68,18.62,12.58,35.28,21.44,76.71,33.79,121.01,33.79,5.05,0,10.04-.21,15.01-.53,1.48-.09,2.95-.23,4.42-.35,3.64-.3,7.25-.68,10.84-1.15,1.47-.19,2.93-.37,4.39-.58,4.64-.69,9.25-1.48,13.79-2.45.2-.04.4-.07.59-.11,4.72-1.01,9.37-2.2,13.98-3.5,1.41-.39,2.79-.83,4.19-1.25,3.33-1,6.63-2.07,9.9-3.21,1.41-.49,2.83-.98,4.23-1.5,4.04-1.5,8.04-3.1,11.98-4.82.41-.18.83-.33,1.24-.52,4.27-1.9,8.45-3.95,12.59-6.09,1.32-.68,2.61-1.4,3.92-2.11,2.93-1.59,5.83-3.24,8.68-4.95,1.33-.8,2.67-1.59,3.98-2.41,3.4-2.13,6.74-4.34,10.02-6.64.56-.39,1.14-.75,1.69-1.15,3.72-2.66,7.34-5.45,10.9-8.32,1.18-.96,2.33-1.94,3.5-2.92,2.49-2.09,4.93-4.22,7.32-6.4,1.19-1.08,2.37-2.16,3.54-3.26,2.78-2.64,5.49-5.35,8.14-8.12.57-.6,1.18-1.17,1.74-1.78.04-.05.09-.09.13-.14,5.58,100.35,28.72,177.41,69.44,231.12Z"/>
        <path class="cls-7" d="m336.9,897.52l-.1.18c-.05.09-.07.16-.12.25l.22-.43Z"/>
        <g>
          <path class="cls-11" d="m1198.52,214.44c22.41,5.37,44.62,11.41,66.52,18.06,33.51,10.08,66.41,21.59,98.65,34.44,4.89,1.94,9.73,3.97,14.59,5.97l123.98-187.25c-18.19-6.22-36.49-12.19-54.98-17.75-28.27-8.59-56.94-16.38-85.88-23.32-38.12-9.25-76.76-17.11-115.94-23.52-24.2-3.98-48.58-7.36-73.11-10.2l-20.94,193.15c15.82,3.18,31.53,6.64,47.12,10.42Z"/>
          <path class="cls-4" d="m782.24,186.2c28.14-2.87,56.54-4.76,85.19-5.63,13.25-.46,26.5-.67,39.86-.67s26.61.2,39.86.67c28.65.87,57.05,2.76,85.19,5.63,16.47,1.64,32.84,3.63,49.12,5.92l20.37-187.86c-21.55-1.56-43.21-2.74-64.99-3.4-17.11-.59-34.22-.86-51.46-.86s-34.35.26-51.46.86c-36.99,1.12-73.66,3.57-109.99,7.27-23.27,2.32-46.4,5.15-69.39,8.47l26.05,169.78c.55-.06,1.1-.12,1.66-.18Z"/>
          <path class="cls-9" d="m1525.17,345.22v.15c0,42.06-2.1,83.66-6.24,124.64-1.79,18.27-4.04,36.43-6.65,54.44-.35,2.4-.75,4.78-1.12,7.17l243.33-15.69c4.51-23.52,8.54-47.21,11.99-71.08,3.37-23.25,6.28-46.71,8.59-70.29,5.35-52.91,8.06-106.62,8.06-160.93v-.2c-46.38-26.82-94.14-51.4-143.29-73.53-21.47-9.65-43.2-18.83-65.2-27.55-1.35-.54-2.73-1.04-4.09-1.58l-126.69,191.35c27.68,13.38,54.79,27.75,81.3,43.08Z"/>
          <path class="cls-6" d="m450.88,266.94c32.23-12.84,65.13-24.36,98.65-34.44,21.9-6.65,44.1-12.69,66.52-18.06,29.52-7.16,59.45-13.25,89.8-18.22,1.49-.24,2.99-.46,4.48-.7l-25.65-167.19c-25.32,4.84-50.45,10.22-75.32,16.25-28.93,6.94-57.6,14.73-85.88,23.32-43.27,13.01-85.75,27.88-127.37,44.46-15.3,6.07-30.46,12.45-45.53,18.98l92.51,138.77c2.6-1.05,5.18-2.15,7.8-3.19Z"/>
          <path class="cls-3" d="m1379.24,928.41c-12.64,23.64-26.04,46.77-40.17,69.43-14.99,24.1-30.8,47.64-47.43,70.61-15.09,20.88-30.8,41.29-47.12,61.19-7.29,8.84-14.72,17.55-22.23,26.18l138.84,138.84c20.5-22.23,40.38-45.06,59.65-68.44,21.07-25.7,41.35-52.06,60.84-79.01,21.47-29.66,41.88-60.05,61.24-91.16,14.1-22.63,27.63-45.63,40.59-69l-197.33-71.75c-2.28,4.38-4.55,8.76-6.89,13.11Z"/>
          <path class="cls-2" d="m1681.33,775.56c13.81-36.6,26.29-73.92,37.46-111.78,7.31-25.01,14.03-50.34,20.17-75.87l-240.8,15.53c-1.68,7.89-3.41,15.76-5.23,23.6-5.27,22.56-11.15,44.92-17.6,66.98-8.65,29.32-18.32,58.23-29.01,86.57-8.98,23.92-18.68,47.48-29.1,70.65l199.5,72.54c9.16-18.39,18.03-36.95,26.49-55.74,13.67-30.32,26.36-61.17,38.12-92.49Z"/>
          <path class="cls-13" d="m1134.87,1246.62c-25.43,23.95-51.88,46.71-79.26,68.36-14.28,11.31-28.76,22.31-43.54,32.95-19.55,14.14-39.59,27.64-60,40.64l54.12,194.81c39.27-23.54,77.53-48.59,114.48-75.32,19.09-13.74,37.79-27.94,56.22-42.54,35.34-27.94,69.5-57.34,102.33-88.26,11.06-10.35,21.97-20.88,32.75-31.57l-137.75-137.75c-12.86,13.18-25.93,26.14-39.34,38.69Z"/>
          <path class="cls-10" d="m881.97,1400.8c-23.29-14.23-46.06-29.26-68.29-44.96-2.82-1.99-5.65-3.97-8.45-5.99-.9-.65-1.82-1.28-2.72-1.93-3.07-2.21-6.08-4.49-9.12-6.72-30.86,16.64-66.69,27.06-107.11,31.1,1.75,1.65,3.44,3.37,5.2,5.01,32.83,30.85,66.99,60.25,102.33,88.19,18.43,14.67,37.19,28.8,56.28,42.54,24.77,17.92,50.16,35.07,76,51.57l-44.12-158.81Z"/>
          <path class="cls-1" d="m370.9,302.17c2.12-1.03,4.23-2.09,6.36-3.1l-91.78-137.69c-33.28,16.27-65.96,33.59-97.92,52.13v.13c0,23.35.6,46.57,1.6,69.68,20.74-2.96,41.98-4.49,63.5-4.49,43.65,0,83.19,7.86,118.24,23.34Z"/>
        </g>
      </g>
      <g>
        <path class="cls-8" d="m96.15,1864.2c0,4.75-.97,9.2-2.89,13.35-1.93,4.16-4.49,7.79-7.68,10.91-3.19,3.12-6.94,5.6-11.24,7.46-4.31,1.86-8.91,2.78-13.8,2.78s-9.24-.92-13.46-2.78c-4.23-1.86-7.9-4.34-11.02-7.46-3.12-3.12-5.6-6.75-7.45-10.91-1.86-4.15-2.78-8.6-2.78-13.35s.92-9.49,2.78-13.8c1.85-4.3,4.34-8.01,7.45-11.13,3.12-3.12,6.79-5.6,11.02-7.46,4.23-1.85,8.71-2.78,13.46-2.78s9.49.93,13.8,2.78c4.3,1.86,8.04,4.34,11.24,7.46,3.19,3.12,5.75,6.83,7.68,11.13,1.92,4.3,2.89,8.9,2.89,13.8Zm-8.24,66.54v228.35h-54.97v-228.35h54.97Z"/>
        <path class="cls-8" d="m325.6,1895.8c-1.63,3.26-3.52,5.56-5.67,6.9-2.15,1.33-4.71,2-7.68,2s-6.31-1.15-10.02-3.45c-3.71-2.3-8.09-4.86-13.13-7.68-5.05-2.82-10.95-5.37-17.69-7.68-6.75-2.3-14.73-3.45-23.93-3.45-8.31,0-15.54,1-21.7,3-6.16,2-11.35,4.79-15.58,8.35-4.23,3.56-7.38,7.83-9.46,12.8-2.08,4.97-3.12,10.42-3.12,16.36,0,7.57,2.12,13.88,6.34,18.92,4.23,5.05,9.83,9.35,16.8,12.91,6.97,3.56,14.91,6.75,23.81,9.57,8.9,2.82,17.99,5.83,27.27,9.01,9.27,3.19,18.36,6.9,27.26,11.13,8.91,4.23,16.84,9.57,23.81,16.03,6.97,6.45,12.57,14.36,16.8,23.7,4.23,9.35,6.34,20.7,6.34,34.05,0,14.54-2.49,28.15-7.45,40.84-4.97,12.69-12.24,23.74-21.81,33.16-9.57,9.42-21.25,16.84-35.05,22.26-13.8,5.41-29.6,8.12-47.4,8.12-10.24,0-20.33-1-30.27-3-9.94-2-19.48-4.86-28.6-8.57-9.12-3.7-17.66-8.16-25.6-13.35-7.94-5.2-15.02-10.98-21.25-17.36l17.36-28.71c1.63-2.08,3.59-3.82,5.9-5.23,2.3-1.41,4.86-2.11,7.68-2.11,3.71,0,7.71,1.52,12.02,4.56,4.3,3.04,9.38,6.42,15.24,10.12,5.86,3.71,12.76,7.09,20.7,10.13,7.93,3.04,17.47,4.56,28.59,4.56,17.06,0,30.27-4.04,39.62-12.13,9.35-8.09,14.02-19.7,14.02-34.83,0-8.46-2.11-15.36-6.34-20.7-4.23-5.34-9.83-9.83-16.8-13.46-6.98-3.64-14.91-6.71-23.81-9.24-8.9-2.52-17.95-5.26-27.15-8.23-9.2-2.97-18.25-6.53-27.15-10.68-8.91-4.16-16.84-9.57-23.81-16.25-6.98-6.68-12.57-15.03-16.8-25.04-4.23-10.02-6.34-22.37-6.34-37.06,0-11.72,2.33-23.14,7.01-34.27,4.67-11.13,11.5-20.99,20.48-29.6,8.98-8.6,19.99-15.5,33.05-20.7,13.06-5.19,27.97-7.79,44.74-7.79,18.99,0,36.5,2.97,52.52,8.91,16.03,5.93,29.68,14.24,40.95,24.93l-14.69,28.27Z"/>
        <path class="cls-8" d="m594.9,1837.27v47.63h-142.66v89.25h112.39v46.07h-112.39v91.03h142.66v47.85h-202.98v-321.82h202.98Z"/>
        <path class="cls-8" d="m867.98,2083.19c3.26,0,6.08,1.26,8.46,3.79l23.59,25.6c-13.06,16.17-29.12,28.56-48.18,37.17-19.07,8.61-41.96,12.91-68.66,12.91-23.89,0-45.37-4.08-64.43-12.24-19.06-8.16-35.35-19.51-48.85-34.06-13.5-14.54-23.86-31.9-31.05-52.08-7.2-20.18-10.79-42.21-10.79-66.1s4.01-46.33,12.02-66.43c8.01-20.11,19.28-37.42,33.83-51.97,14.54-14.54,31.94-25.85,52.19-33.94,20.25-8.09,42.62-12.13,67.1-12.13s44.77,3.82,62.65,11.46c17.88,7.64,33.2,17.77,45.96,30.38l-20.03,27.82c-1.19,1.78-2.71,3.34-4.57,4.67-1.85,1.33-4.41,2-7.68,2s-6.9-1.34-10.46-4.01c-3.56-2.67-8.09-5.56-13.57-8.68-5.49-3.12-12.43-6.01-20.81-8.68-8.38-2.67-19.03-4-31.94-4-15.13,0-29.04,2.63-41.73,7.9-12.69,5.27-23.59,12.8-32.72,22.59-9.12,9.79-16.25,21.7-21.37,35.72-5.12,14.02-7.68,29.79-7.68,47.29s2.56,34.2,7.68,48.3c5.12,14.1,12.06,25.97,20.81,35.61,8.75,9.65,19.06,17.03,30.93,22.15,11.87,5.12,24.63,7.68,38.28,7.68,8.16,0,15.54-.45,22.15-1.33,6.6-.89,12.69-2.3,18.25-4.23,5.57-1.93,10.83-4.41,15.8-7.46,4.97-3.04,9.91-6.78,14.8-11.24,1.48-1.34,3.04-2.41,4.67-3.23,1.63-.82,3.41-1.23,5.34-1.23Z"/>
        <path class="cls-8" d="m1074.73,2110.79c11.57,0,21.92-1.93,31.05-5.79,9.12-3.86,16.84-9.27,23.14-16.24s11.13-15.43,14.47-25.37c3.34-9.94,5.01-21.06,5.01-33.39v-192.74h59.87v192.74c0,19.14-3.08,36.84-9.24,53.08-6.16,16.25-15.03,30.27-26.6,42.07-11.57,11.79-25.6,20.99-42.07,27.6-16.47,6.6-35.01,9.91-55.64,9.91s-39.17-3.3-55.64-9.91c-16.47-6.6-30.45-15.8-41.95-27.6-11.5-11.8-20.33-25.82-26.48-42.07-6.16-16.24-9.24-33.94-9.24-53.08v-192.74h59.87v192.51c0,12.32,1.67,23.45,5,33.39,3.34,9.94,8.12,18.44,14.36,25.48,6.23,7.05,13.91,12.5,23.04,16.36,9.12,3.86,19.47,5.79,31.05,5.79Z"/>
        <path class="cls-8" d="m1331.12,2033.34v125.75h-59.87v-321.82h98.15c21.95,0,40.76,2.26,56.42,6.79,15.65,4.53,28.48,10.87,38.5,19.03,10.02,8.16,17.36,17.91,22.03,29.26,4.67,11.35,7.01,23.85,7.01,37.5,0,10.83-1.6,21.07-4.79,30.71-3.2,9.65-7.79,18.4-13.8,26.27-6.01,7.87-13.43,14.76-22.25,20.7-8.83,5.93-18.89,10.68-30.16,14.24,7.57,4.31,14.09,10.46,19.58,18.48l80.57,118.85h-53.86c-5.2,0-9.61-1.04-13.24-3.12-3.64-2.08-6.72-5.04-9.24-8.9l-67.66-103.05c-2.53-3.86-5.31-6.6-8.35-8.23-3.04-1.63-7.53-2.45-13.46-2.45h-25.6Zm0-42.96h37.39c11.28,0,21.1-1.41,29.49-4.23,8.38-2.82,15.28-6.71,20.7-11.68,5.41-4.97,9.46-10.87,12.13-17.69,2.67-6.83,4.01-14.32,4.01-22.48,0-16.32-5.38-28.85-16.14-37.61-10.76-8.75-27.19-13.13-49.29-13.13h-38.28v106.82Z"/>
        <path class="cls-8" d="m1763.77,1837.27v47.63h-142.66v89.25h112.39v46.07h-112.39v91.03h142.66v47.85h-202.98v-321.82h202.98Z"/>
      </g>
    </g>
  </g>
</svg>